<svg width="133" height="24" viewBox="0 0 133 24" fill="none" xmlns="http://www.w3.org/2000/svg">
<path d="M10.5001 10.83L15.6201 7.87002V2.01002C15.6201 1.78002 15.3701 1.63002 15.1701 1.75002L8.42009 5.65002C8.33009 5.70002 8.27009 5.80002 8.27009 5.91002V9.54002L3.04009 6.52002C2.84009 6.40002 2.59009 6.55002 2.59009 6.78002V16.68C2.59009 16.79 2.65009 16.89 2.74009 16.94L10.5001 21.42V10.83Z" fill="#81CCCD"/>
<path d="M12.0001 22.29L21.2601 16.94C21.3501 16.89 21.4101 16.79 21.4101 16.68V6.78004C21.4101 6.55004 21.1601 6.40004 20.9601 6.52004L12.0001 11.7V22.3V22.29Z" fill="#02999A"/>
<path d="M30.792 11.592C30.792 10.572 30.96 9.654 31.296 8.838C31.644 8.01 32.118 7.308 32.718 6.732C33.33 6.156 34.05 5.712 34.878 5.4C35.718 5.088 36.63 4.932 37.614 4.932C38.61 4.932 39.528 5.088 40.368 5.4C41.208 5.712 41.934 6.156 42.546 6.732C43.158 7.308 43.632 8.01 43.968 8.838C44.316 9.654 44.49 10.572 44.49 11.592C44.49 12.588 44.316 13.5 43.968 14.328C43.632 15.144 43.158 15.852 42.546 16.452C41.934 17.04 41.208 17.502 40.368 17.838C39.528 18.162 38.61 18.324 37.614 18.324C36.63 18.324 35.718 18.162 34.878 17.838C34.05 17.502 33.33 17.04 32.718 16.452C32.118 15.852 31.644 15.144 31.296 14.328C30.96 13.5 30.792 12.588 30.792 11.592ZM33.258 11.592C33.258 12.276 33.36 12.906 33.564 13.482C33.78 14.046 34.08 14.538 34.464 14.958C34.86 15.378 35.322 15.708 35.85 15.948C36.39 16.176 36.984 16.29 37.632 16.29C38.28 16.29 38.874 16.176 39.414 15.948C39.954 15.708 40.416 15.378 40.8 14.958C41.196 14.538 41.496 14.046 41.7 13.482C41.916 12.906 42.024 12.276 42.024 11.592C42.024 10.932 41.916 10.32 41.7 9.756C41.496 9.192 41.202 8.7 40.818 8.28C40.434 7.86 39.972 7.53 39.432 7.29C38.892 7.05 38.292 6.93 37.632 6.93C36.972 6.93 36.372 7.05 35.832 7.29C35.304 7.53 34.848 7.86 34.464 8.28C34.08 8.7 33.78 9.192 33.564 9.756C33.36 10.32 33.258 10.932 33.258 11.592ZM46.5714 9.36H48.6414V10.8H48.6774C48.9174 10.296 49.2534 9.888 49.6854 9.576C50.1174 9.264 50.6214 9.108 51.1974 9.108C51.2814 9.108 51.3714 9.114 51.4674 9.126C51.5634 9.126 51.6474 9.138 51.7194 9.162V11.142C51.5754 11.106 51.4494 11.082 51.3414 11.07C51.2454 11.058 51.1494 11.052 51.0534 11.052C50.5614 11.052 50.1654 11.142 49.8654 11.322C49.5654 11.502 49.3314 11.718 49.1634 11.97C48.9954 12.222 48.8814 12.48 48.8214 12.744C48.7614 13.008 48.7314 13.218 48.7314 13.374V18H46.5714V9.36ZM61.5956 18H59.5436V16.704H59.5076C59.2076 17.208 58.7876 17.592 58.2476 17.856C57.7196 18.12 57.1496 18.252 56.5376 18.252C55.8776 18.252 55.2836 18.132 54.7556 17.892C54.2396 17.64 53.7956 17.31 53.4236 16.902C53.0636 16.482 52.7816 15.996 52.5776 15.444C52.3856 14.88 52.2896 14.28 52.2896 13.644C52.2896 13.008 52.3916 12.414 52.5956 11.862C52.7996 11.31 53.0876 10.83 53.4596 10.422C53.8316 10.014 54.2756 9.696 54.7916 9.468C55.3076 9.228 55.8716 9.108 56.4836 9.108C56.8796 9.108 57.2336 9.156 57.5456 9.252C57.8576 9.336 58.1276 9.444 58.3556 9.576C58.5956 9.708 58.7996 9.852 58.9676 10.008C59.1356 10.164 59.2736 10.314 59.3816 10.458H59.4356V4.392H61.5956V18ZM54.4856 13.644C54.4856 13.98 54.5336 14.316 54.6296 14.652C54.7376 14.988 54.8936 15.288 55.0976 15.552C55.3016 15.816 55.5596 16.032 55.8716 16.2C56.1836 16.368 56.5496 16.452 56.9696 16.452C57.3656 16.452 57.7196 16.374 58.0316 16.218C58.3436 16.05 58.6076 15.834 58.8236 15.57C59.0516 15.306 59.2196 15.012 59.3276 14.688C59.4476 14.352 59.5076 14.016 59.5076 13.68C59.5076 13.344 59.4476 13.008 59.3276 12.672C59.2196 12.336 59.0516 12.036 58.8236 11.772C58.6076 11.508 58.3436 11.292 58.0316 11.124C57.7196 10.956 57.3656 10.872 56.9696 10.872C56.5496 10.872 56.1836 10.956 55.8716 11.124C55.5596 11.28 55.3016 11.49 55.0976 11.754C54.8936 12.018 54.7376 12.318 54.6296 12.654C54.5336 12.978 54.4856 13.308 54.4856 13.644ZM70.3038 12.816C70.3038 12.54 70.2618 12.276 70.1778 12.024C70.1058 11.772 69.9858 11.55 69.8178 11.358C69.6498 11.166 69.4338 11.016 69.1698 10.908C68.9178 10.788 68.6178 10.728 68.2698 10.728C67.6218 10.728 67.0698 10.926 66.6138 11.322C66.1698 11.706 65.9238 12.204 65.8758 12.816H70.3038ZM72.4638 13.788C72.4638 13.884 72.4638 13.98 72.4638 14.076C72.4638 14.172 72.4578 14.268 72.4458 14.364H65.8758C65.8998 14.676 65.9778 14.964 66.1098 15.228C66.2538 15.48 66.4398 15.702 66.6678 15.894C66.8958 16.074 67.1538 16.218 67.4418 16.326C67.7298 16.434 68.0298 16.488 68.3418 16.488C68.8818 16.488 69.3378 16.392 69.7098 16.2C70.0818 15.996 70.3878 15.72 70.6278 15.372L72.0678 16.524C71.2158 17.676 69.9798 18.252 68.3598 18.252C67.6878 18.252 67.0698 18.15 66.5058 17.946C65.9418 17.73 65.4498 17.43 65.0298 17.046C64.6218 16.662 64.2978 16.194 64.0578 15.642C63.8298 15.078 63.7158 14.442 63.7158 13.734C63.7158 13.038 63.8298 12.408 64.0578 11.844C64.2978 11.268 64.6218 10.782 65.0298 10.386C65.4378 9.978 65.9178 9.666 66.4698 9.45C67.0338 9.222 67.6398 9.108 68.2878 9.108C68.8878 9.108 69.4398 9.21 69.9438 9.414C70.4598 9.606 70.9038 9.9 71.2758 10.296C71.6478 10.68 71.9358 11.166 72.1398 11.754C72.3558 12.33 72.4638 13.008 72.4638 13.788ZM74.5558 9.36H76.6258V10.8H76.6618C76.9018 10.296 77.2378 9.888 77.6698 9.576C78.1018 9.264 78.6058 9.108 79.1818 9.108C79.2658 9.108 79.3558 9.114 79.4518 9.126C79.5478 9.126 79.6318 9.138 79.7038 9.162V11.142C79.5598 11.106 79.4338 11.082 79.3258 11.07C79.2298 11.058 79.1338 11.052 79.0378 11.052C78.5458 11.052 78.1498 11.142 77.8498 11.322C77.5498 11.502 77.3158 11.718 77.1478 11.97C76.9798 12.222 76.8658 12.48 76.8058 12.744C76.7458 13.008 76.7158 13.218 76.7158 13.374V18H74.5558V9.36ZM90.4184 8.244C90.0824 7.788 89.6444 7.458 89.1044 7.254C88.5644 7.038 88.0364 6.93 87.5204 6.93C86.8604 6.93 86.2604 7.05 85.7204 7.29C85.1804 7.53 84.7124 7.86 84.3164 8.28C83.9324 8.7 83.6324 9.192 83.4164 9.756C83.2124 10.32 83.1104 10.932 83.1104 11.592C83.1104 12.288 83.2124 12.924 83.4164 13.5C83.6204 14.076 83.9084 14.574 84.2804 14.994C84.6644 15.402 85.1204 15.72 85.6484 15.948C86.1764 16.176 86.7704 16.29 87.4304 16.29C88.1144 16.29 88.7204 16.158 89.2484 15.894C89.7764 15.618 90.2024 15.258 90.5264 14.814L92.3444 16.092C91.7804 16.8 91.0904 17.352 90.2744 17.748C89.4584 18.132 88.5044 18.324 87.4124 18.324C86.4164 18.324 85.4984 18.162 84.6584 17.838C83.8304 17.502 83.1164 17.04 82.5164 16.452C81.9164 15.852 81.4484 15.144 81.1124 14.328C80.7764 13.5 80.6084 12.588 80.6084 11.592C80.6084 10.572 80.7824 9.654 81.1304 8.838C81.4904 8.01 81.9764 7.308 82.5884 6.732C83.2124 6.156 83.9444 5.712 84.7844 5.4C85.6244 5.088 86.5364 4.932 87.5204 4.932C87.9284 4.932 88.3544 4.974 88.7984 5.058C89.2424 5.13 89.6684 5.25 90.0764 5.418C90.4844 5.574 90.8684 5.772 91.2284 6.012C91.5884 6.252 91.8944 6.54 92.1464 6.876L90.4184 8.244ZM93.6816 4.392H95.8416V18H93.6816V4.392ZM97.958 13.644C97.958 12.96 98.078 12.342 98.318 11.79C98.57 11.226 98.906 10.746 99.326 10.35C99.746 9.954 100.244 9.648 100.82 9.432C101.396 9.216 102.008 9.108 102.656 9.108C103.304 9.108 103.916 9.216 104.492 9.432C105.068 9.648 105.566 9.954 105.986 10.35C106.406 10.746 106.736 11.226 106.976 11.79C107.228 12.342 107.354 12.96 107.354 13.644C107.354 14.328 107.228 14.952 106.976 15.516C106.736 16.08 106.406 16.566 105.986 16.974C105.566 17.37 105.068 17.682 104.492 17.91C103.916 18.138 103.304 18.252 102.656 18.252C102.008 18.252 101.396 18.138 100.82 17.91C100.244 17.682 99.746 17.37 99.326 16.974C98.906 16.566 98.57 16.08 98.318 15.516C98.078 14.952 97.958 14.328 97.958 13.644ZM100.154 13.644C100.154 13.98 100.202 14.316 100.298 14.652C100.406 14.988 100.562 15.288 100.766 15.552C100.97 15.816 101.228 16.032 101.54 16.2C101.852 16.368 102.224 16.452 102.656 16.452C103.088 16.452 103.46 16.368 103.772 16.2C104.084 16.032 104.342 15.816 104.546 15.552C104.75 15.288 104.9 14.988 104.996 14.652C105.104 14.316 105.158 13.98 105.158 13.644C105.158 13.308 105.104 12.978 104.996 12.654C104.9 12.318 104.75 12.018 104.546 11.754C104.342 11.49 104.084 11.28 103.772 11.124C103.46 10.956 103.088 10.872 102.656 10.872C102.224 10.872 101.852 10.956 101.54 11.124C101.228 11.28 100.97 11.49 100.766 11.754C100.562 12.018 100.406 12.318 100.298 12.654C100.202 12.978 100.154 13.308 100.154 13.644ZM117.332 18H115.28V16.614H115.244C115.052 17.046 114.716 17.43 114.236 17.766C113.768 18.09 113.21 18.252 112.562 18.252C111.998 18.252 111.512 18.156 111.104 17.964C110.708 17.76 110.378 17.496 110.114 17.172C109.862 16.848 109.676 16.476 109.556 16.056C109.436 15.636 109.376 15.204 109.376 14.76V9.36H111.536V14.148C111.536 14.4 111.554 14.664 111.59 14.94C111.626 15.216 111.704 15.468 111.824 15.696C111.944 15.912 112.106 16.092 112.31 16.236C112.526 16.38 112.808 16.452 113.156 16.452C113.492 16.452 113.786 16.386 114.038 16.254C114.302 16.11 114.512 15.93 114.668 15.714C114.836 15.498 114.962 15.252 115.046 14.976C115.13 14.688 115.172 14.4 115.172 14.112V9.36H117.332V18ZM128.709 18H126.657V16.704H126.621C126.321 17.208 125.901 17.592 125.361 17.856C124.833 18.12 124.263 18.252 123.651 18.252C122.991 18.252 122.397 18.132 121.869 17.892C121.353 17.64 120.909 17.31 120.537 16.902C120.177 16.482 119.895 15.996 119.691 15.444C119.499 14.88 119.403 14.28 119.403 13.644C119.403 13.008 119.505 12.414 119.709 11.862C119.913 11.31 120.201 10.83 120.573 10.422C120.945 10.014 121.389 9.696 121.905 9.468C122.421 9.228 122.985 9.108 123.597 9.108C123.993 9.108 124.347 9.156 124.659 9.252C124.971 9.336 125.241 9.444 125.469 9.576C125.709 9.708 125.913 9.852 126.081 10.008C126.249 10.164 126.387 10.314 126.495 10.458H126.549V4.392H128.709V18ZM121.599 13.644C121.599 13.98 121.647 14.316 121.743 14.652C121.851 14.988 122.007 15.288 122.211 15.552C122.415 15.816 122.673 16.032 122.985 16.2C123.297 16.368 123.663 16.452 124.083 16.452C124.479 16.452 124.833 16.374 125.145 16.218C125.457 16.05 125.721 15.834 125.937 15.57C126.165 15.306 126.333 15.012 126.441 14.688C126.561 14.352 126.621 14.016 126.621 13.68C126.621 13.344 126.561 13.008 126.441 12.672C126.333 12.336 126.165 12.036 125.937 11.772C125.721 11.508 125.457 11.292 125.145 11.124C124.833 10.956 124.479 10.872 124.083 10.872C123.663 10.872 123.297 10.956 122.985 11.124C122.673 11.28 122.415 11.49 122.211 11.754C122.007 12.018 121.851 12.318 121.743 12.654C121.647 12.978 121.599 13.308 121.599 13.644Z" fill="black"/>
</svg>
